<svg width="97" height="16" viewBox="0 0 97 16" fill="none" xmlns="http://www.w3.org/2000/svg">
<path d="M6.22474 5.69198L7.95674 2.02039C8.00716 1.91414 8.0847 1.82476 8.18067 1.7623C8.27664 1.69984 8.38724 1.66675 8.50008 1.66675C8.61291 1.66675 8.72351 1.69984 8.81948 1.7623C8.91545 1.82476 8.99299 1.91414 9.04341 2.02039L10.7754 5.69198L14.6474 6.28426C14.7591 6.30056 14.8642 6.34959 14.9507 6.42574C15.0371 6.50189 15.1015 6.60211 15.1365 6.71494C15.1715 6.82778 15.1756 6.94869 15.1484 7.06387C15.1212 7.17906 15.0638 7.28388 14.9827 7.36636L12.1814 10.2225L12.8427 14.2576C12.9274 14.7755 12.4074 15.1699 11.9627 14.9257L8.50008 13.0197L5.03674 14.9257C4.59274 15.1706 4.07274 14.7755 4.15741 14.2569L4.81874 10.2218L2.01741 7.36566C1.93673 7.28312 1.87968 7.17841 1.85272 7.06343C1.82576 6.94845 1.82999 6.82781 1.86492 6.71524C1.89985 6.60266 1.96409 6.50266 2.05032 6.4266C2.13656 6.35053 2.24133 6.30146 2.35274 6.28496L6.22474 5.69198Z" fill="#FFD400" stroke="#FFD400" stroke-width="0.5" stroke-linecap="round" stroke-linejoin="round"/>
<path d="M26.2247 5.69198L27.9567 2.02039C28.0072 1.91414 28.0847 1.82476 28.1807 1.7623C28.2766 1.69984 28.3872 1.66675 28.5001 1.66675C28.6129 1.66675 28.7235 1.69984 28.8195 1.7623C28.9155 1.82476 28.993 1.91414 29.0434 2.02039L30.7754 5.69198L34.6474 6.28426C34.7591 6.30056 34.8642 6.34959 34.9507 6.42574C35.0371 6.50189 35.1015 6.60211 35.1365 6.71494C35.1715 6.82778 35.1756 6.94869 35.1484 7.06387C35.1212 7.17906 35.0638 7.28388 34.9827 7.36636L32.1814 10.2225L32.8427 14.2576C32.9274 14.7755 32.4074 15.1699 31.9627 14.9257L28.5001 13.0197L25.0367 14.9257C24.5927 15.1706 24.0727 14.7755 24.1574 14.2569L24.8187 10.2218L22.0174 7.36566C21.9367 7.28312 21.8797 7.17841 21.8527 7.06343C21.8258 6.94845 21.83 6.82781 21.8649 6.71524C21.8999 6.60266 21.9641 6.50266 22.0503 6.4266C22.1366 6.35053 22.2413 6.30146 22.3527 6.28496L26.2247 5.69198Z" fill="#FFD400" stroke="#FFD400" stroke-width="0.5" stroke-linecap="round" stroke-linejoin="round"/>
<path d="M46.2247 5.69198L47.9567 2.02039C48.0072 1.91414 48.0847 1.82476 48.1807 1.7623C48.2766 1.69984 48.3872 1.66675 48.5001 1.66675C48.6129 1.66675 48.7235 1.69984 48.8195 1.7623C48.9155 1.82476 48.993 1.91414 49.0434 2.02039L50.7754 5.69198L54.6474 6.28426C54.7591 6.30056 54.8642 6.34959 54.9507 6.42574C55.0371 6.50189 55.1015 6.60211 55.1365 6.71494C55.1715 6.82778 55.1756 6.94869 55.1484 7.06387C55.1212 7.17906 55.0638 7.28388 54.9827 7.36636L52.1814 10.2225L52.8427 14.2576C52.9274 14.7755 52.4074 15.1699 51.9627 14.9257L48.5001 13.0197L45.0367 14.9257C44.5927 15.1706 44.0727 14.7755 44.1574 14.2569L44.8187 10.2218L42.0174 7.36566C41.9367 7.28312 41.8797 7.17841 41.8527 7.06343C41.8258 6.94845 41.83 6.82781 41.8649 6.71524C41.8999 6.60266 41.9641 6.50266 42.0503 6.4266C42.1366 6.35053 42.2413 6.30146 42.3527 6.28496L46.2247 5.69198Z" fill="#FFD400" stroke="#FFD400" stroke-width="0.5" stroke-linecap="round" stroke-linejoin="round"/>
<path d="M66.2247 5.69198L67.9567 2.02039C68.0072 1.91414 68.0847 1.82476 68.1807 1.7623C68.2766 1.69984 68.3872 1.66675 68.5001 1.66675C68.6129 1.66675 68.7235 1.69984 68.8195 1.7623C68.9155 1.82476 68.993 1.91414 69.0434 2.02039L70.7754 5.69198L74.6474 6.28426C74.7591 6.30056 74.8642 6.34959 74.9507 6.42574C75.0371 6.50189 75.1015 6.60211 75.1365 6.71494C75.1715 6.82778 75.1756 6.94869 75.1484 7.06387C75.1212 7.17906 75.0638 7.28388 74.9827 7.36636L72.1814 10.2225L72.8427 14.2576C72.9274 14.7755 72.4074 15.1699 71.9627 14.9257L68.5001 13.0197L65.0367 14.9257C64.5927 15.1706 64.0727 14.7755 64.1574 14.2569L64.8187 10.2218L62.0174 7.36566C61.9367 7.28312 61.8797 7.17841 61.8527 7.06343C61.8258 6.94845 61.83 6.82781 61.8649 6.71524C61.8999 6.60266 61.9641 6.50266 62.0503 6.4266C62.1366 6.35053 62.2413 6.30146 62.3527 6.28496L66.2247 5.69198Z" fill="#FFD400" stroke="#FFD400" stroke-width="0.5" stroke-linecap="round" stroke-linejoin="round"/>
<path d="M86.2247 5.69198L87.9567 2.02039C88.0072 1.91414 88.0847 1.82476 88.1807 1.7623C88.2766 1.69984 88.3872 1.66675 88.5001 1.66675C88.6129 1.66675 88.7235 1.69984 88.8195 1.7623C88.9155 1.82476 88.993 1.91414 89.0434 2.02039L90.7754 5.69198L94.6474 6.28426C94.7591 6.30056 94.8642 6.34959 94.9507 6.42574C95.0371 6.50189 95.1015 6.60211 95.1365 6.71494C95.1715 6.82778 95.1756 6.94869 95.1484 7.06387C95.1212 7.17906 95.0638 7.28388 94.9827 7.36636L92.1814 10.2225L92.8427 14.2576C92.9274 14.7755 92.4074 15.1699 91.9627 14.9257L88.5001 13.0197L85.0367 14.9257C84.5927 15.1706 84.0727 14.7755 84.1574 14.2569L84.8187 10.2218L82.0174 7.36566C81.9367 7.28312 81.8797 7.17841 81.8527 7.06343C81.8258 6.94845 81.83 6.82781 81.8649 6.71524C81.8999 6.60266 81.9641 6.50266 82.0503 6.4266C82.1366 6.35053 82.2413 6.30146 82.3527 6.28496L86.2247 5.69198Z" fill="#FFD400" stroke="#FFD400" stroke-width="0.5" stroke-linecap="round" stroke-linejoin="round"/>
</svg>
